<svg xmlns="http://www.w3.org/2000/svg" width="960" height="450" viewBox="0 0 960 450" font-family="Segoe UI, Roboto, Helvetica, Arial, sans-serif">
  <style>
    .t{font-size:20px;font-weight:700;fill:#0f172a}
    .s{font-size:12px;fill:#64748b}
    .h{font-size:13.5px;fill:#92400e;font-weight:700}
    .md{font-size:11px;fill:#334155}
    .card{fill:#fffbeb;stroke:#f59e0b;stroke-width:1.2}
    .foot{font-size:10px;fill:#94a3b8}
  </style>
  <rect width="960" height="450" rx="14" fill="#f8fafc" stroke="#e2e8f0"/>
  <text x="30" y="34" class="t">73rd/74th Amendment anchors</text>
  <text x="30" y="54" class="s">prelims · feature → value</text>
  <rect x="30" y="88" width="442" height="139" rx="10" class="card"/>
  <text x="44" y="114" class="h">STRUCTURE</text>
  <text x="44" y="134" class="md">3-tier: village-block-district</text>
  <text x="44" y="151" class="md">Gram Sabha = foundation (243A)</text>
  <text x="44" y="168" class="md">direct elections 5-yr term</text>
  <text x="44" y="185" class="md">IX Schedule: 29 subjects</text>
  <text x="44" y="202" class="md">IX-A: 18 subjects</text>
  <rect x="488" y="88" width="442" height="139" rx="10" class="card"/>
  <text x="502" y="114" class="h">RESERVATION</text>
  <text x="502" y="134" class="md">SC-ST proportional</text>
  <text x="502" y="151" class="md">women: not less than 1/3</text>
  <text x="502" y="168" class="md">many states 50% now</text>
  <text x="502" y="185" class="md">chairperson rotation state law</text>
  <rect x="30" y="243" width="442" height="139" rx="10" class="card"/>
  <text x="44" y="269" class="h">INSTITUTIONS</text>
  <text x="44" y="289" class="md">State Election Commission 243K</text>
  <text x="44" y="306" class="md">State Finance Commission 243-I</text>
  <text x="44" y="323" class="md">every 5 years</text>
  <text x="44" y="340" class="md">district planning committee 243ZD</text>
  <rect x="488" y="243" width="442" height="139" rx="10" class="card"/>
  <text x="502" y="269" class="h">URBAN BODIES</text>
  <text x="502" y="289" class="md">Nagar panchayat / council / corporation</text>
  <text x="502" y="306" class="md">ward committees >3 lakh</text>
  <text x="502" y="323" class="md">74th: ULBs, XII Schedule</text>
  <text x="502" y="340" class="md">74th: metro planning committees 243ZE</text>
  <text x="30" y="436" class="foot">studyUPSC · prelims diagram · pair with detailed-notes</text>
</svg>